<?xml version="1.0" encoding="utf-8"?>
<!-- Generator: Adobe Illustrator 26.0.2, SVG Export Plug-In . SVG Version: 6.00 Build 0)  -->
<svg version="1.1" id="Layer_1" xmlns="http://www.w3.org/2000/svg" xmlns:xlink="http://www.w3.org/1999/xlink" x="0px" y="0px"
	 viewBox="0 0 278.9 278.9" style="enable-background:new 0 0 278.9 278.9;" xml:space="preserve">
<g id="b2ef0598-3d49-4253-9aef-6e68f3267ea1">
	<g id="af74aad8-f7ed-4c43-8c1c-bfa3bab640b8">
		<path d="M139.4,0C62.5,0,0,62.5,0,139.4s62.5,139.4,139.4,139.4s139.4-62.6,139.4-139.4S216.3,0,139.4,0z M139.4,262.5
			c-67.9,0-123-55.1-123-123s55.1-123,123-123s123,55.1,123,123S207.4,262.5,139.4,262.5L139.4,262.5z"/>
		<path d="M58.5,135.3c4.8,6.6,48.3,65.2,51.8,70l8.7-9.9L220.3,80.1l-110,92.7L58.5,135.3z"/>
	</g>
</g>
</svg>
