<svg xmlns="http://www.w3.org/2000/svg" width="21.789" height="26" viewBox="0 0 21.789 26">
  <g id="アートボード_62" data-name="アートボード 62" transform="translate(-0.458 -0.458)">
    <path id="パス_989" data-name="パス 989" d="M22.247,18.81v4.317a.733.733,0,0,1-.733.733H4.128a.733.733,0,0,1-.733-.733V1.191A.733.733,0,0,1,4.128.458H21.514a.733.733,0,0,1,.733.733V18.81Z" fill="#fff"/>
    <path id="パス_990" data-name="パス 990" d="M20.965,1.741V22.577H4.678V1.741H20.965m.55-1.283H4.128a.733.733,0,0,0-.733.733V23.127a.733.733,0,0,0,.733.733H21.514a.733.733,0,0,0,.733-.733V1.191A.733.733,0,0,0,21.514.458Z" fill="#352a2a"/>
    <path id="パス_991" data-name="パス 991" d="M19.312,21.41v4.315a.733.733,0,0,1-.733.733H1.191a.733.733,0,0,1-.733-.733V3.789a.733.733,0,0,1,.733-.733H18.579a.733.733,0,0,1,.733.733V21.41Z" fill="#fff"/>
    <path id="パス_992" data-name="パス 992" d="M18.029,4.339V25.175H1.741V4.339H18.029m.55-1.283H1.191a.733.733,0,0,0-.733.733V25.725a.733.733,0,0,0,.733.733H18.579a.733.733,0,0,0,.733-.733V3.789A.733.733,0,0,0,18.579,3.056Z" fill="#352a2a"/>
    <path id="パス_993" data-name="パス 993" d="M15.2,7.573H3.837a.641.641,0,1,1,0-1.283H15.2a.641.641,0,1,1,0,1.283Z" fill="#352a2a"/>
    <path id="パス_994" data-name="パス 994" d="M12.46,10.7H3.848a.641.641,0,1,1,0-1.283H12.46a.641.641,0,1,1,0,1.283Z" fill="#352a2a"/>
    <path id="パス_995" data-name="パス 995" d="M9.516,13.825H3.835a.641.641,0,1,1,0-1.283h5.68a.641.641,0,1,1,0,1.283Z" fill="#352a2a"/>
  </g>
</svg>
