<svg xmlns="http://www.w3.org/2000/svg" width="22" height="24.958" viewBox="0 0 22 24.958">
  <g id="アートボード_62_のコピー" data-name="アートボード 62 のコピー" transform="translate(-1.476 -4.611)">
    <circle id="楕円形_155" data-name="楕円形 155" cx="4.884" cy="4.884" r="4.884" transform="translate(7.589 5.363)" fill="#fff"/>
    <path id="パス_996" data-name="パス 996" d="M12.481,6.113a4.135,4.135,0,1,1-4.143,4.133,4.135,4.135,0,0,1,4.143-4.133m0-1.5a5.636,5.636,0,1,0,5.636,5.636A5.636,5.636,0,0,0,12.481,4.612Z" fill="#352a2a"/>
    <path id="パス_997" data-name="パス 997" d="M2.277,28.786c.366-5.872,4.8-10.522,10.2-10.522s9.827,4.65,10.194,10.518Z" fill="#fff"/>
    <path id="パス_998" data-name="パス 998" d="M12.481,19.049c4.72,0,8.644,3.889,9.326,8.946H3.144c.68-5.047,4.606-8.946,9.336-8.946m0-1.572C6.4,17.477,1.476,22.89,1.476,29.569h22c0-6.679-4.926-12.092-11-12.092Z" fill="#352a2a"/>
  </g>
</svg>
