<svg xmlns="http://www.w3.org/2000/svg" width="20" height="22.688" viewBox="0 0 20 22.688">
  <g id="Group_623" data-name="Group 623" transform="translate(-97 -570)">
    <g id="Group_622" data-name="Group 622" transform="translate(-919 509.688)">
      <g id="アートボード_62_のコピー" data-name="アートボード 62 のコピー" transform="translate(1014.658 56.119)">
        <circle id="Ellipse_153" data-name="Ellipse 153" cx="4.44" cy="4.44" r="4.44" transform="translate(6.899 4.875)" fill="#fff"/>
        <path id="Path_969" data-name="Path 969" d="M11.346,5.558A3.759,3.759,0,1,1,7.58,9.315a3.759,3.759,0,0,1,3.766-3.757m0-1.365A5.124,5.124,0,1,0,16.47,9.316,5.124,5.124,0,0,0,11.346,4.193Z" fill="#ea422d"/>
        <path id="Path_970" data-name="Path 970" d="M2.07,26.169C2.4,20.831,6.432,16.6,11.346,16.6s8.934,4.227,9.267,9.562Z" fill="#fff"/>
        <path id="Path_971" data-name="Path 971" d="M11.346,17.317c4.291,0,7.858,3.536,8.478,8.132H2.858c.619-4.588,4.187-8.132,8.488-8.132m0-1.429c-5.527,0-10,4.921-10,10.993h20c0-6.072-4.478-10.993-10-10.993Z" fill="#ea422d"/>
      </g>
    </g>
  </g>
</svg>
